<?xml version="1.0"?>
<svg xmlns="http://www.w3.org/2000/svg" width="512" height="512" viewBox="0 0 512 512"><g><path d="M496,384c-11.12,0-16.17-3.03-22.55-6.86-7.15-4.28-15.24-9.14-30.79-9.14A53.275,53.275,0,0,0,424,371.01V336h8a24,24,0,0,0,0-48H372.39l-53.64-84.29A8,8,0,0,0,312,200H248V136h16a8,8,0,0,0,4.94-14.29l-112-88a7.991,7.991,0,0,0-9.88,0l-112,88A8,8,0,0,0,40,136H56V381.9a54.817,54.817,0,0,1-9.22-4.76C39.64,372.86,31.55,368,16,368a8,8,0,0,0,0,16c11.12,0,16.16,3.03,22.55,6.86,7.14,4.28,15.23,9.14,30.78,9.14s23.64-4.86,30.78-9.14c5.6-3.36,10.16-6.09,18.67-6.72a8.141,8.141,0,0,0,1.22.1,7.642,7.642,0,0,0,1.86-.23c.27,0,.53-.01.8-.01,11.12,0,16.17,3.03,22.55,6.86,7.14,4.28,15.24,9.14,30.79,9.14a64.13,64.13,0,0,0,6.75-.35,7.355,7.355,0,0,0,1.25.11,7.932,7.932,0,0,0,3.47-.8c8.53-1.65,14.17-5.02,19.31-8.1,6.39-3.83,11.43-6.86,22.55-6.86s16.16,3.03,22.55,6.86c7.14,4.28,15.23,9.14,30.78,9.14s23.64-4.86,30.78-9.14c6.39-3.83,11.43-6.86,22.55-6.86s16.16,3.03,22.55,6.86c7.14,4.28,15.23,9.14,30.78,9.14s23.65-4.86,30.79-9.14c6.39-3.83,11.43-6.86,22.55-6.86s16.17,3.03,22.55,6.86c7.15,4.28,15.24,9.14,30.79,9.14a8,8,0,0,0,0-16Zm-320,0a37.719,37.719,0,0,1-13.05-1.99,52.625,52.625,0,0,1-9.5-4.87c-6.28-3.76-13.29-7.97-25.45-8.93V296a24,24,0,0,1,48,0Zm56-15.95c-.87-.03-1.76-.05-2.67-.05-15.55,0-23.65,4.86-30.79,9.14a73.583,73.583,0,0,1-6.54,3.63V296a40,40,0,0,0-80,0v72.88c-9,1.6-14.82,5.08-20.12,8.26-5.85,3.51-10.59,6.34-19.88,6.79V136H232ZM63.13,120,152,50.17,240.87,120ZM408,379.4c-4.87,2.7-9.87,4.6-18.68,4.6-11.11,0-16.16-3.03-22.55-6.86-7.14-4.28-15.23-9.14-30.78-9.14s-23.64,4.86-30.78,9.14c-6.39,3.83-11.43,6.86-22.55,6.86s-16.16-3.03-22.55-6.86A68.275,68.275,0,0,0,248,371.01V248h43.61l53.64,84.29A8,8,0,0,0,352,336h56ZM356.39,320l-53.64-84.29A8,8,0,0,0,296,232H248V216h59.61l53.64,84.29A8,8,0,0,0,368,304h64a8,8,0,0,1,0,16Z"/><path d="M496,424c-11.119,0-16.166-3.027-22.555-6.86-7.14-4.285-15.234-9.14-30.784-9.14s-23.644,4.855-30.785,9.14c-6.389,3.833-11.436,6.86-22.554,6.86s-16.162-3.027-22.55-6.86c-7.14-4.285-15.233-9.14-30.782-9.14s-23.641,4.855-30.782,9.14c-6.388,3.833-11.433,6.86-22.551,6.86s-16.161-3.027-22.549-6.859c-7.14-4.286-15.233-9.141-30.782-9.141s-23.641,4.855-30.781,9.141C192.157,420.973,187.112,424,176,424s-16.162-3.027-22.55-6.859c-7.14-4.286-15.233-9.141-30.783-9.141s-23.641,4.855-30.781,9.14C85.494,420.973,80.449,424,69.333,424s-16.164-3.027-22.551-6.86C39.642,412.855,31.549,408,16,408a8,8,0,0,0,0,16c11.117,0,16.162,3.027,22.55,6.859C45.69,435.145,53.783,440,69.333,440s23.641-4.855,30.781-9.141C106.5,427.027,111.547,424,122.663,424s16.163,3.027,22.551,6.86c7.14,4.285,15.233,9.14,30.782,9.14s23.642-4.855,30.781-9.141c6.388-3.832,11.433-6.859,22.549-6.859s16.162,3.027,22.55,6.86c7.141,4.285,15.233,9.14,30.781,9.14s23.643-4.855,30.783-9.141c6.388-3.832,11.433-6.859,22.55-6.859s16.162,3.027,22.55,6.86c7.141,4.285,15.233,9.14,30.782,9.14s23.644-4.855,30.784-9.14c6.389-3.833,11.436-6.86,22.555-6.86s16.165,3.027,22.553,6.86C472.355,435.145,480.449,440,496,440a8,8,0,0,0,0-16Z"/><path d="M496,464c-11.119,0-16.166-3.027-22.555-6.86-7.14-4.285-15.234-9.14-30.784-9.14s-23.644,4.855-30.785,9.14c-6.389,3.833-11.436,6.86-22.554,6.86s-16.162-3.027-22.55-6.86c-7.14-4.285-15.233-9.14-30.782-9.14s-23.641,4.855-30.782,9.14c-6.388,3.833-11.433,6.86-22.551,6.86s-16.161-3.027-22.549-6.859c-7.14-4.286-15.233-9.141-30.782-9.141s-23.641,4.855-30.781,9.141C192.157,460.973,187.112,464,176,464s-16.162-3.027-22.55-6.859c-7.14-4.286-15.233-9.141-30.783-9.141s-23.641,4.855-30.781,9.14C85.494,460.973,80.449,464,69.333,464s-16.164-3.027-22.551-6.86C39.642,452.855,31.549,448,16,448a8,8,0,0,0,0,16c11.117,0,16.162,3.027,22.55,6.859C45.69,475.145,53.783,480,69.333,480s23.641-4.855,30.781-9.141C106.5,467.027,111.547,464,122.663,464s16.163,3.027,22.551,6.86c7.14,4.285,15.233,9.14,30.782,9.14s23.642-4.855,30.781-9.141c6.388-3.832,11.433-6.859,22.549-6.859s16.162,3.027,22.55,6.86c7.141,4.285,15.233,9.14,30.781,9.14s23.643-4.855,30.783-9.141c6.388-3.832,11.433-6.859,22.55-6.859s16.162,3.027,22.55,6.86c7.141,4.285,15.233,9.14,30.782,9.14s23.644-4.855,30.784-9.14c6.389-3.833,11.436-6.86,22.555-6.86s16.165,3.027,22.553,6.86C472.355,475.145,480.449,480,496,480a8,8,0,0,0,0-16Z"/><path d="M208,200H192V160a8,8,0,0,0-8-8H120a8,8,0,0,0-8,8v40H96a8,8,0,0,0-8,8v24a8,8,0,0,0,8,8H208a8,8,0,0,0,8-8V208A8,8,0,0,0,208,200Zm-80-32h48v32H128Zm72,56H104v-8h96Z"/></g></svg>
