<svg id="Capa_1" enable-background="new 0 0 511 511" height="512" viewBox="0 0 511 511" width="512" xmlns="http://www.w3.org/2000/svg"><g><g><path d="m256 .43c-57.9 0-105 47.1-105 105 0 73.527 95.702 198.086 104.85 213.29 15.843-24.311 105.15-143.172 105.15-213.29 0-57.9-47.1-105-105-105zm0 150c-24.81 0-45-20.19-45-45s20.19-45 45-45 45 20.19 45 45-20.19 45-45 45zm0-60c-8.27 0-15 6.73-15 15s6.73 15 15 15 15-6.73 15-15-6.73-15-15-15z"/></g><path d="m113.21 356.28c-27.46 9.93-52.2 22.76-73.11 38.05-25.38-39.58-40.1-86.55-40.1-136.9v-15h106.88c-2 35.08-.33 74.84 6.33 113.85z"/><path d="m171.88 498.29c-45.06-15.66-84.43-43.54-114.07-79.63 17.55-12.77 38.4-23.7 61.57-32.44 10.33 42.41 27.22 82.21 52.5 112.07z"/><path d="m392.64 386.12c22.99 8.67 43.71 19.53 61.22 32.26-29.48 36.22-68.72 64.17-113.72 79.87 25.28-29.87 42.17-69.69 52.5-112.13z"/><path d="m511 242.43v15c0 50.29-14.52 97.15-39.61 136.63-20.64-14.97-45.2-27.75-72.62-37.7 6.68-39.02 8.35-78.8 6.35-113.93z"/><path d="m147.94 376.88c28.93-8.1 60.48-13.02 93.06-14.18v147.87c-41.09-10.25-75.72-62.04-93.06-133.69z"/><path d="m364.08 376.8c-17.34 71.69-51.98 123.52-93.08 133.77v-147.87c32.62 1.14 64.15 6.02 93.08 14.1z"/><path d="m229.4 333.19c-30.61 1.76-60.07 6.55-87.45 14.01-5.31-32.43-7.26-67.9-5.03-104.77h33.18c21.957 37.995 42.276 65.547 59.3 90.76z"/><path d="m370.04 347.27c-27.76-7.57-57.41-12.33-87.74-14.08 16.691-24.769 37.36-52.976 59.23-90.76h33.55c2.23 36.9.28 72.39-5.04 104.84z"/></g></svg>