<?xml version="1.0" encoding="iso-8859-1"?>
<!-- Generator: Adobe Illustrator 19.0.0, SVG Export Plug-In . SVG Version: 6.00 Build 0)  -->
<svg version="1.1" id="Capa_1" xmlns="http://www.w3.org/2000/svg" xmlns:xlink="http://www.w3.org/1999/xlink" x="0px" y="0px"
	 viewBox="0 0 512 512" style="enable-background:new 0 0 512 512;" xml:space="preserve">
<g>
	<g>
		<path d="M445.437,31.625V0H213.914v31.786h-64.195v191.136c37.569,20.426,63.126,60.255,63.126,105.942
			c0,27.146-17.807,71.454-54.441,135.455c-2.912,5.088-5.817,10.072-8.685,14.927v28.848h165.23v-96.819h31.57v96.819h162.058
			V31.839L445.437,31.625z M283.377,377.329h-31.572v-31.57h31.572V377.329z M283.377,314.186h-31.572v-31.57h31.572V314.186z
			 M283.377,252.494h-31.572v-31.57h31.572V252.494z M346.52,377.329h-31.572v-31.57h31.572V377.329z M346.52,314.186h-31.572
			v-31.57h31.572V314.186z M346.52,252.494h-31.572v-31.57h31.572V252.494z M378.091,178.828h-31.57v-36.834h-31.574v36.834h-31.57
			V73.59h31.57v36.834h31.574V73.59h31.57V178.828z M409.664,377.329h-31.572v-31.57h31.572V377.329z M409.664,314.186h-31.572
			v-31.57h31.572V314.186z M409.664,252.494h-31.572v-31.57h31.572V252.494z"/>
	</g>
</g>
<g>
	<g>
		<path d="M92.35,239.937c-49.034,0-88.927,39.893-88.927,88.926c0,11.919,6.518,43.304,50.175,119.604
			C67.92,473.5,82.365,496.52,92.35,512c9.984-15.48,24.43-38.5,38.752-63.533c43.656-76.3,50.175-107.686,50.175-119.604
			C181.276,279.829,141.384,239.937,92.35,239.937z M92.35,387.482c-32.323,0-58.62-26.297-58.62-58.62s26.296-58.62,58.62-58.62
			c32.323,0,58.62,26.297,58.62,58.62S124.673,387.482,92.35,387.482z"/>
	</g>
</g>
<g>
	<g>
		<path d="M92.35,301.813c-14.915,0-27.05,12.134-27.05,27.05c0,14.916,12.134,27.05,27.05,27.05c14.916,0,27.05-12.134,27.05-27.05
			C119.4,313.948,107.264,301.813,92.35,301.813z"/>
	</g>
</g>
<g>
</g>
<g>
</g>
<g>
</g>
<g>
</g>
<g>
</g>
<g>
</g>
<g>
</g>
<g>
</g>
<g>
</g>
<g>
</g>
<g>
</g>
<g>
</g>
<g>
</g>
<g>
</g>
<g>
</g>
</svg>
